<svg xmlns="http://www.w3.org/2000/svg" width="100%" viewBox="0 0 880 530" role="img" aria-label="Source Architecture">
<style>text{font-family:Inter,Segoe UI,Arial,sans-serif;fill:#111827}.title{font-size:30px;font-weight:700}.box-title{fill:#fff;font-size:18px;font-weight:700}.box-text{fill:#eef2ff;font-size:14px}.caption{fill:#4b5563;font-size:14px}.arrow{stroke:#6b7280;stroke-width:2;marker-end:url(#arrow)}.box{rx:16;ry:16;filter:url(#shadow)}</style>
<defs><marker id="arrow" markerWidth="10" markerHeight="10" refX="8" refY="3" orient="auto"><path d="M0,0 L0,6 L9,3 z" fill="#6b7280"/></marker><filter id="shadow" x="-10%" y="-10%" width="120%" height="130%"><feDropShadow dx="0" dy="3" stdDeviation="4" flood-color="#111827" flood-opacity="0.18"/></filter></defs>
<rect width="100%" height="100%" fill="#f8fafc"/>
<text x="40" y="55" class="title">Source Architecture</text>
<rect class="box" x="40" y="100" width="240" height="150" fill="#16213e"/>
<text x="60" y="134" class="box-title">Entry point</text>
<text x="60" y="162" class="box-text">src/index.ts</text>
<text x="60" y="185" class="box-text">Registers handlers/tools</text>
<text x="60" y="208" class="box-text">Wires stores + DB</text>
<rect class="box" x="320" y="100" width="240" height="150" fill="#0b525b"/>
<text x="340" y="134" class="box-title">Stores</text>
<text x="340" y="162" class="box-text">memory-store.ts</text>
<text x="340" y="185" class="box-text">sqlite-memory-store.ts</text>
<text x="340" y="208" class="box-text">skill-store.ts</text>
<rect class="box" x="600" y="100" width="240" height="150" fill="#1b4332"/>
<text x="620" y="134" class="box-title">Tools</text>
<text x="620" y="162" class="box-text">memory</text>
<text x="620" y="185" class="box-text">memory_search</text>
<text x="620" y="208" class="box-text">session_search</text>
<text x="620" y="231" class="box-text">skill</text>
<rect class="box" x="40" y="330" width="240" height="150" fill="#3a0ca3"/>
<text x="60" y="364" class="box-title">Handlers</text>
<text x="60" y="392" class="box-text">background-review</text>
<text x="60" y="415" class="box-text">correction-detector</text>
<text x="60" y="438" class="box-text">session-flush</text>
<text x="60" y="461" class="box-text">commands</text>
<rect class="box" x="320" y="330" width="240" height="150" fill="#6a4c93"/>
<text x="340" y="364" class="box-title">Search pipeline</text>
<text x="340" y="392" class="box-text">session-parser</text>
<text x="340" y="415" class="box-text">session-indexer</text>
<text x="340" y="438" class="box-text">session-search</text>
<text x="340" y="461" class="box-text">db/schema</text>
<rect class="box" x="600" y="330" width="240" height="150" fill="#0f3460"/>
<text x="620" y="364" class="box-title">Shared utilities</text>
<text x="620" y="392" class="box-text">config / paths / project</text>
<text x="620" y="415" class="box-text">prompt-context</text>
<text x="620" y="438" class="box-text">content-scanner</text>
<line class="arrow" x1="290" y1="175.0" x2="308" y2="175.0"/>
<line class="arrow" x1="570" y1="175.0" x2="588" y2="175.0"/>
<line class="arrow" x1="290" y1="405.0" x2="308" y2="405.0"/>
<line class="arrow" x1="570" y1="405.0" x2="588" y2="405.0"/>
</svg>